<svg xmlns="http://www.w3.org/2000/svg" xmlns:xlink="http://www.w3.org/1999/xlink" viewBox="-819 1326 222 39"><defs><style>.a{clip-path:url(#f);}.b,.f{fill:#fff;}.c{fill:none;stroke:#707070;opacity:0.11;}.d{fill:#737474;}.d,.f{font-size:25px;font-family:KeepCalm-Medium, Keep Calm;font-weight:500;}.e{fill:#31da00;}.g{fill:rgba(255,255,255,0);}.h{filter:url(#c);}.i{filter:url(#a);}</style><filter id="a" x="-828" y="1318" width="240" height="57" filterUnits="userSpaceOnUse"><feOffset input="SourceAlpha"/><feGaussianBlur stdDeviation="3" result="b"/><feFlood flood-opacity="0.161"/><feComposite operator="in" in2="b"/><feComposite in="SourceGraphic"/></filter><filter id="c" x="-828" y="1317" width="240" height="57" filterUnits="userSpaceOnUse"><feOffset input="SourceAlpha"/><feGaussianBlur stdDeviation="3" result="d"/><feFlood flood-opacity="0.161"/><feComposite operator="in" in2="d"/><feComposite in="SourceGraphic"/></filter><clipPath id="f"><rect x="-819" y="1326" width="222" height="39"/></clipPath></defs><g id="e" class="a"><rect class="g" x="-819" y="1326" width="222" height="39"/><g class="i" transform="matrix(1, 0, 0, 1, 0, 0)"><rect class="b" width="222" height="39" rx="8" transform="translate(-819 1327)"/></g><line class="c" y2="39" transform="translate(-774.5 1327.5)"/><text class="d" transform="translate(-808 1337)"><tspan x="0" y="20">D</tspan></text><g class="h" transform="matrix(1, 0, 0, 1, 0, 0)"><rect class="e" width="222" height="39" transform="translate(-819 1326)"/></g><line class="c" y2="39" transform="translate(-774.5 1326.5)"/><text class="f" transform="translate(-808 1334)"><tspan x="0" y="20">D</tspan></text><path class="b" d="M10.5,19.007,5.211,13.719l-1.8,1.788L10.5,22.6,25.716,7.378,23.928,5.59Z" transform="translate(-631.41 1331.41)"/></g></svg>