<svg xmlns="http://www.w3.org/2000/svg" xmlns:xlink="http://www.w3.org/1999/xlink" viewBox="385 -59 18 20">
  <defs>
    <style>
      .cls-1 {
        clip-path: url(#clip-Feedback_Icon_BLack);
      }

      .cls-2 {
        fill: rgba(255,255,255,0);
      }
    </style>
    <clipPath id="clip-Feedback_Icon_BLack">
      <rect x="385" y="-59" width="18" height="20"/>
    </clipPath>
  </defs>
  <g id="Feedback_Icon_BLack" data-name="Feedback Icon BLack" class="cls-1">
    <rect class="cls-2" x="385" y="-59" width="18" height="20"/>
    <path id="ic_assignment_24px" d="M19,3H14.82A2.988,2.988,0,0,0,9.18,3H5A2.006,2.006,0,0,0,3,5V19a2.006,2.006,0,0,0,2,2H19a2.006,2.006,0,0,0,2-2V5A2.006,2.006,0,0,0,19,3ZM12,3a1,1,0,1,1-1,1A1,1,0,0,1,12,3Zm2,14H7V15h7Zm3-4H7V11H17Zm0-4H7V7H17Z" transform="translate(382 -60)"/>
  </g>
</svg>
