<svg xmlns="http://www.w3.org/2000/svg" viewBox="0 0 23.378 12.752">
  <defs>
    <style>
      .cls-1 {
        fill: #27b4e3;
      }
    </style>
  </defs>
  <path id="ic_videogame_asset_24px" class="cls-1" d="M22.253,6H3.125A2.132,2.132,0,0,0,1,8.125v8.5a2.132,2.132,0,0,0,2.125,2.125H22.253a2.132,2.132,0,0,0,2.125-2.125v-8.5A2.132,2.132,0,0,0,22.253,6ZM11.626,13.439H8.439v3.188H6.313V13.439H3.125V11.313H6.313V8.125H8.439v3.188h3.188Zm4.782,2.125A1.594,1.594,0,1,1,18,13.97,1.592,1.592,0,0,1,16.408,15.564Zm4.251-3.188a1.594,1.594,0,1,1,1.594-1.594A1.592,1.592,0,0,1,20.659,12.376Z" transform="translate(-1 -6)"/>
</svg>
