<svg xmlns="http://www.w3.org/2000/svg" xmlns:xlink="http://www.w3.org/1999/xlink" viewBox="-819 975 222 39"><defs><style>.a{clip-path:url(#f);}.b{fill:none;stroke:#707070;opacity:0.11;}.c{fill:#737474;}.c,.d{font-size:25px;font-family:KeepCalm-Medium, Keep Calm;font-weight:500;}.d{fill:#fff;}.e{fill:#ff0700;}.f{fill:rgba(255,255,255,0);}.g{filter:url(#c);}.h{filter:url(#a);}</style><filter id="a" x="-828" y="966" width="240" height="57" filterUnits="userSpaceOnUse"><feOffset input="SourceAlpha"/><feGaussianBlur stdDeviation="3" result="b"/><feFlood flood-opacity="0.161"/><feComposite operator="in" in2="b"/><feComposite in="SourceGraphic"/></filter><filter id="c" x="-828" y="966" width="240" height="57" filterUnits="userSpaceOnUse"><feOffset input="SourceAlpha"/><feGaussianBlur stdDeviation="3" result="d"/><feFlood flood-opacity="0.161"/><feComposite operator="in" in2="d"/><feComposite in="SourceGraphic"/></filter><clipPath id="f"><rect x="-819" y="975" width="222" height="39"/></clipPath></defs><g id="e" class="a"><rect class="f" x="-819" y="975" width="222" height="39"/><line class="b" y2="39" transform="translate(-742.5 976.5)"/><text class="c" transform="translate(-776 986)"><tspan x="0" y="20">D</tspan></text><line class="b" y2="39" transform="translate(-742.5 975.5)"/><text class="d" transform="translate(-776 983)"><tspan x="0" y="20">A</tspan></text><g class="h" transform="matrix(1, 0, 0, 1, 0, 0)"><rect class="e" width="222" height="39" rx="8" transform="translate(-819 975)"/></g><line class="b" y2="39" transform="translate(-774.5 975.5)"/><text class="d" transform="translate(-808 985)"><tspan x="0" y="20">A</tspan></text><g class="g" transform="matrix(1, 0, 0, 1, 0, 0)"><rect class="e" width="222" height="39" transform="translate(-819 975)"/></g><line class="b" y2="39" transform="translate(-774.5 975.5)"/><text class="d" transform="translate(-808 985)"><tspan x="0" y="20">B</tspan></text></g></svg>