<svg xmlns="http://www.w3.org/2000/svg" xmlns:xlink="http://www.w3.org/1999/xlink" viewBox="-819 1029 222 39"><defs><style>.a{clip-path:url(#h);}.b{fill:none;stroke:#707070;opacity:0.11;}.c{fill:#737474;}.c,.d{font-size:25px;font-family:KeepCalm-Medium, Keep Calm;font-weight:500;}.d{fill:#fff;}.e{fill:#ff0700;}.f{fill:rgba(255,255,255,0);}.g{filter:url(#e);}.h{filter:url(#c);}.i{filter:url(#a);}</style><filter id="a" x="-828" y="1020" width="240" height="57" filterUnits="userSpaceOnUse"><feOffset input="SourceAlpha"/><feGaussianBlur stdDeviation="3" result="b"/><feFlood flood-opacity="0.161"/><feComposite operator="in" in2="b"/><feComposite in="SourceGraphic"/></filter><filter id="c" x="-828" y="1020" width="240" height="57" filterUnits="userSpaceOnUse"><feOffset input="SourceAlpha"/><feGaussianBlur stdDeviation="3" result="d"/><feFlood flood-opacity="0.161"/><feComposite operator="in" in2="d"/><feComposite in="SourceGraphic"/></filter><filter id="e" x="-828" y="1020" width="240" height="57" filterUnits="userSpaceOnUse"><feOffset input="SourceAlpha"/><feGaussianBlur stdDeviation="3" result="f"/><feFlood flood-opacity="0.161"/><feComposite operator="in" in2="f"/><feComposite in="SourceGraphic"/></filter><clipPath id="h"><rect x="-819" y="1029" width="222" height="39"/></clipPath></defs><g id="g" class="a"><rect class="f" x="-819" y="1029" width="222" height="39"/><line class="b" y2="39" transform="translate(-742.5 1030.5)"/><text class="c" transform="translate(-776 1040)"><tspan x="0" y="20">D</tspan></text><line class="b" y2="39" transform="translate(-742.5 1029.5)"/><text class="d" transform="translate(-776 1037)"><tspan x="0" y="20">A</tspan></text><g class="i" transform="matrix(1, 0, 0, 1, 0, 0)"><rect class="e" width="222" height="39" rx="8" transform="translate(-819 1029)"/></g><line class="b" y2="39" transform="translate(-774.5 1029.5)"/><text class="d" transform="translate(-808 1039)"><tspan x="0" y="20">A</tspan></text><g class="h" transform="matrix(1, 0, 0, 1, 0, 0)"><rect class="e" width="222" height="39" rx="8" transform="translate(-819 1029)"/></g><line class="b" y2="39" transform="translate(-774.5 1029.5)"/><text class="d" transform="translate(-808 1039)"><tspan x="0" y="20">B</tspan></text><g class="g" transform="matrix(1, 0, 0, 1, 0, 0)"><rect class="e" width="222" height="39" transform="translate(-819 1029)"/></g><line class="b" y2="39" transform="translate(-774.5 1029.5)"/><text class="d" transform="translate(-808 1039)"><tspan x="0" y="20">C</tspan></text></g></svg>