<svg xmlns="http://www.w3.org/2000/svg" xmlns:xlink="http://www.w3.org/1999/xlink" viewBox="0 0 20 16">
  <defs>
    <style>
      .cls-1 {
        clip-path: url(#clip-New_Icon_Logo);
      }

      .cls-2 {
        fill: #fff;
      }

      .cls-3 {
        fill: #31da00;
      }

      .cls-4 {
        fill: rgba(255,255,255,0);
      }
    </style>
    <clipPath id="clip-New_Icon_Logo">
      <rect width="20" height="16"/>
    </clipPath>
  </defs>
  <g id="New_Icon_Logo" data-name="New Icon Logo" class="cls-1">
    <rect class="cls-4" width="20" height="16"/>
    <rect id="Rectangle_294" data-name="Rectangle 294" class="cls-2" width="18" height="9" transform="translate(1 4)"/>
    <path id="ic_fiber_new_24px" class="cls-3" d="M20,4H4A1.985,1.985,0,0,0,2.01,6L2,18a1.993,1.993,0,0,0,2,2H20a1.993,1.993,0,0,0,2-2V6A1.993,1.993,0,0,0,20,4ZM8.5,15H7.3L4.75,11.5V15H3.5V9H4.75l2.5,3.5V9H8.5Zm5-4.74H11v1.12h2.5v1.26H11v1.11h2.5V15h-4V9h4Zm7,3.74a1,1,0,0,1-1,1h-4a1,1,0,0,1-1-1V9h1.25v4.51h1.13V9.99h1.25V13.5h1.12V9H20.5Z" transform="translate(-2 -4)"/>
  </g>
</svg>
